<svg width="40" height="40" viewBox="0 0 40 40" fill="none" xmlns="http://www.w3.org/2000/svg">
<path d="M10.2054 14.3348C10.1856 14.3378 10.166 14.3417 10.1465 14.3463C10.1329 14.3442 10.1193 14.3425 10.1056 14.3411C7.84807 14.6461 5.76388 15.9026 4.44019 17.7566C3.08363 19.6567 2.60605 22.0123 2.68256 24.259C2.80675 27.9055 4.29156 31.2763 5.89378 34.3809C6.52041 35.5951 7.2079 36.8649 8.22689 37.9405C9.2549 39.0256 10.6481 39.8921 12.2468 39.9909C13.5258 40.0699 14.8013 39.6296 15.7626 38.7839C15.7639 38.7831 15.7652 38.7823 15.7665 38.7815C16.44 38.2646 17.287 37.9564 18.1352 37.9197C19.1019 37.8779 20.099 38.1924 20.8666 38.7815C20.8682 38.7824 20.8697 38.7834 20.8713 38.7844C21.8325 39.6297 23.1075 40.0698 24.3863 39.9908C25.985 39.892 27.3781 39.0255 28.4061 37.9404C29.4251 36.8649 30.1129 35.595 30.7395 34.3808C32.3417 31.2762 33.8266 27.9054 33.9508 24.2589C34.0273 22.0122 33.5494 19.6563 32.1928 17.7562C30.8691 15.9021 28.7853 14.6459 26.5277 14.341C26.4947 14.3366 26.4614 14.3345 26.4281 14.3346L10.2054 14.3348ZM10.2626 15.8289H26.3707C28.1884 16.0871 29.9102 17.1308 30.9768 18.6249C32.0876 20.1807 32.5255 22.2108 32.4575 24.208C32.3462 27.477 30.9829 30.6514 29.4118 33.6958C28.7969 34.8871 28.1642 36.0235 27.3214 36.913C26.4877 37.7931 25.3975 38.4315 24.2944 38.4997C23.4095 38.5544 22.4803 38.2293 21.8226 37.6347C21.8218 37.6342 21.821 37.6336 21.8202 37.6331C21.806 37.6202 21.7913 37.6078 21.7762 37.5961C20.7222 36.7872 19.3983 36.369 18.0709 36.4264C16.9094 36.4767 15.7787 36.8883 14.8564 37.5961C14.8461 37.6058 14.8361 37.6159 14.8264 37.6262C14.821 37.6288 14.8156 37.6315 14.8103 37.6343C14.1527 38.2288 13.2237 38.5539 12.3389 38.4992C11.2358 38.4311 10.1456 37.7926 9.31184 36.9126C8.46909 36.023 7.83635 34.8866 7.2215 33.6953C5.65037 30.651 4.28706 27.4766 4.17572 24.2075C4.10772 22.2104 4.54539 20.1802 5.65616 18.6244C6.7228 17.1303 8.44489 16.0867 10.2626 15.8284L10.2626 15.8289ZM24.4528 18.4813C24.0313 18.4907 23.6111 18.5614 23.2067 18.694C23.1135 18.7245 23.0272 18.7731 22.9527 18.837C22.8783 18.9009 22.8171 18.9789 22.7728 19.0664C22.7284 19.1539 22.7018 19.2493 22.6943 19.3472C22.6869 19.445 22.6988 19.5434 22.7293 19.6366C22.791 19.8249 22.925 19.9809 23.1018 20.0704C23.2786 20.1598 23.4836 20.1754 23.6719 20.1137C24.2662 19.9189 24.9443 19.9322 25.5305 20.1502C26.1168 20.3682 26.639 20.8009 26.9616 21.3367C27.3768 22.026 27.4743 22.9369 27.2146 23.6985C27.1507 23.886 27.1639 24.0912 27.2513 24.269C27.3387 24.4468 27.4932 24.5827 27.6807 24.6466C27.8682 24.7105 28.0735 24.6973 28.2513 24.61C28.4291 24.5226 28.5649 24.3681 28.6288 24.1805C29.0366 22.9845 28.8935 21.6485 28.2416 20.566C27.7398 19.7328 26.963 19.0887 26.0514 18.7498C25.5956 18.5803 25.1152 18.4907 24.6335 18.4813C24.5733 18.4797 24.513 18.4797 24.4528 18.4813Z" fill="url(#paint0_linear_478_134)"/>
<path d="M12.7522 3.88672C11.9189 3.89342 11.0881 4.05039 10.3085 4.35333C10.2981 4.35902 10.2879 4.36489 10.2778 4.37107C10.243 4.3879 10.2096 4.40742 10.1778 4.42944C10.1443 4.44958 10.1125 4.47233 10.0826 4.49745C10.0546 4.52429 10.0288 4.55329 10.0053 4.58414C9.98004 4.61335 9.95713 4.64446 9.93671 4.67721C9.91803 4.71189 9.90211 4.74804 9.88912 4.78523C9.87439 4.82054 9.86241 4.85695 9.85325 4.89409C9.8492 4.90538 9.84542 4.91671 9.84192 4.92818C9.59773 6.4113 9.96442 7.9593 10.8478 9.17541C11.7312 10.3915 13.0896 11.2183 14.5756 11.4446C15.5215 11.5887 16.488 11.4816 17.3756 11.1568C17.1535 12.2001 17.1413 13.286 17.347 14.3348H18.8788C18.5088 12.8206 18.7122 11.1483 19.4537 9.78123C20.3779 8.07696 22.1665 6.82327 24.0838 6.53554C24.1808 6.52099 24.274 6.48753 24.3581 6.43694C24.4422 6.38636 24.5155 6.31967 24.5738 6.24076C24.6321 6.16185 24.6743 6.07218 24.698 5.97695C24.7216 5.88173 24.7263 5.78279 24.7117 5.68575C24.6823 5.48988 24.5763 5.31374 24.417 5.19603C24.2577 5.07832 24.0581 5.0287 23.8623 5.05806C21.9728 5.34162 20.2332 6.33949 19.0127 7.79131C18.628 6.99237 18.0911 6.26821 17.4311 5.67003C16.4867 4.81419 15.31 4.23188 14.0567 4.00018C13.7434 3.94227 13.4268 3.90663 13.1094 3.89279C12.9905 3.88753 12.8713 3.88577 12.7522 3.88672ZM12.8581 5.3814C13.1694 5.38395 13.4801 5.41314 13.785 5.46949C14.7605 5.64984 15.6926 6.11102 16.4277 6.77717C17.1315 7.41497 17.664 8.25273 17.9513 9.16054C17.0665 9.82378 15.8883 10.133 14.8005 9.96738C13.7234 9.80335 12.6969 9.17848 12.0565 8.29698C11.5012 7.53245 11.2196 6.55171 11.27 5.6035C11.7837 5.45219 12.3217 5.37695 12.8581 5.3814Z" fill="url(#paint1_linear_478_134)"/>
<defs>
<linearGradient id="paint0_linear_478_134" x1="18.3167" y1="14.3346" x2="18.3167" y2="39.9999" gradientUnits="userSpaceOnUse">
<stop stop-color="#E86C2E"/>
<stop offset="1" stop-color="#E89A50"/>
</linearGradient>
<linearGradient id="paint1_linear_478_134" x1="17.244" y1="3.88647" x2="17.244" y2="14.3348" gradientUnits="userSpaceOnUse">
<stop stop-color="#E86C2E"/>
<stop offset="1" stop-color="#E89A50"/>
</linearGradient>
</defs>
</svg>
