<svg width="40" height="40" viewBox="0 0 40 40" fill="none" xmlns="http://www.w3.org/2000/svg">
<g clip-path="url(#clip0_153_152)">
<path d="M22.3217 12.4635H8.28259V15.0722H22.3217V12.4635Z" fill="url(#paint0_linear_153_152)"/>
<path d="M22.3217 6.23218H8.28259V8.84084H22.3217V6.23218Z" fill="url(#paint1_linear_153_152)"/>
<path d="M37.9779 19.7984C36.9013 18.4325 35.4466 17.6159 33.7425 17.3865C34.5726 15.5824 34.4694 13.6672 34.4628 13.5617L34.3918 12.4112L33.2413 12.3402C33.159 12.3349 31.9767 12.271 30.6049 12.6362V0.000244141H0V40.0002H22.322V39.91C22.6913 39.9693 23.0665 40.0002 23.4468 40.0002C25.1539 40.0002 25.9425 39.7085 26.6039 39.4099C26.8594 39.2946 26.8814 39.2902 26.9765 39.2902C27.0717 39.2902 27.0936 39.2946 27.349 39.4099C28.0104 39.7086 28.799 40.0002 30.5062 40.0002C33.6798 40.0002 36.5168 37.9039 38.2898 34.2487C39.3926 31.9756 39.9998 29.2906 39.9999 26.6882C40.0001 23.8997 39.282 21.4529 37.9779 19.7984ZM29.6231 16.0249C30.1836 15.4644 31.0221 15.181 31.7559 15.0469C31.6219 15.7815 31.3385 16.6196 30.7781 17.18C30.4714 17.4867 30.0814 17.7099 29.6711 17.8715C29.655 17.8778 29.6392 17.8841 29.6232 17.8904C29.2975 18.0145 28.9603 18.1005 28.6429 18.1584C28.7676 17.4514 29.0389 16.6092 29.6231 16.0249ZM2.60867 37.3914V2.60891H27.9962V13.9761C27.9224 14.0417 27.8495 14.1093 27.7785 14.1802C27.4958 14.463 27.2574 14.7708 27.054 15.0908C26.92 14.746 26.7972 14.4537 26.7007 14.233L24.3106 15.2783C24.695 16.157 25.0936 17.2678 25.3597 18.363C24.7332 18.0385 24.0032 17.7178 23.2049 17.5427C20.8038 17.0161 18.6787 17.4265 17.0725 18.6958H8.28295V21.3045H15.0512C14.5494 22.3561 14.2117 23.5838 14.0551 24.9277H8.28295V27.5364H13.9757C14.0364 28.7546 14.2259 29.9787 14.5337 31.1595H8.28295V33.7681H15.4408C15.5126 33.9301 15.5864 34.0906 15.6631 34.2486C16.2606 35.4803 16.9793 36.5342 17.7907 37.3914H2.60867ZM35.9428 33.1102C35.1672 34.7091 33.4295 37.3915 30.5062 37.3915C29.2178 37.3915 28.7953 37.2007 28.4225 37.0324C28.0763 36.876 27.6453 36.6815 26.9764 36.6815C26.3075 36.6815 25.8766 36.876 25.5303 37.0324C25.1575 37.2007 24.735 37.3915 23.4466 37.3915C20.5234 37.3915 18.7857 34.7091 18.0101 33.1102C16.0763 29.1235 16.0824 23.8764 18.0238 21.4133C19.0655 20.0918 20.6208 19.6468 22.646 20.091C23.4735 20.2724 24.2633 20.7232 24.9601 21.121C25.7179 21.5536 26.3164 21.8951 26.9764 21.8951C27.6364 21.8951 28.2349 21.5535 28.9927 21.121C29.6896 20.7232 30.4795 20.2724 31.3067 20.091C33.3323 19.6467 34.8874 20.0917 35.929 21.4133C37.8706 23.8764 37.8766 29.1235 35.9428 33.1102Z" fill="url(#paint2_linear_153_152)"/>
</g>
<defs>
<linearGradient id="paint0_linear_153_152" x1="15.3021" y1="12.4635" x2="15.3021" y2="15.0722" gradientUnits="userSpaceOnUse">
<stop stop-color="#E86C2E"/>
<stop offset="1" stop-color="#E89A50"/>
</linearGradient>
<linearGradient id="paint1_linear_153_152" x1="15.3021" y1="6.23218" x2="15.3021" y2="8.84084" gradientUnits="userSpaceOnUse">
<stop stop-color="#E86C2E"/>
<stop offset="1" stop-color="#E89A50"/>
</linearGradient>
<linearGradient id="paint2_linear_153_152" x1="20" y1="0.000244141" x2="20" y2="40.0002" gradientUnits="userSpaceOnUse">
<stop stop-color="#E86C2E"/>
<stop offset="1" stop-color="#E89A50"/>
</linearGradient>
<clipPath id="clip0_153_152">
<rect width="40" height="40" fill="white"/>
</clipPath>
</defs>
</svg>
