<svg width="40" height="40" viewBox="0 0 40 40" fill="none" xmlns="http://www.w3.org/2000/svg">
<path d="M35.9019 13.8301V24.1582H30.3669L22.8062 16.4626C22.8062 16.4626 21.5919 14.1001 23.955 13.8301H35.9019Z" fill="url(#paint0_linear_478_171)"/>
<path d="M27.9488 4.32444C27.9488 5.29116 27.5647 6.21828 26.8812 6.90185C26.1976 7.58542 25.2705 7.96944 24.3038 7.96944C23.337 7.96944 22.4099 7.58542 21.7263 6.90185C21.0428 6.21828 20.6588 5.29116 20.6588 4.32444C20.6588 3.35773 21.0428 2.43061 21.7263 1.74704C22.4099 1.06347 23.337 0.679443 24.3038 0.679443C25.2705 0.679443 26.1976 1.06347 26.8812 1.74704C27.5647 2.43061 27.9488 3.35773 27.9488 4.32444Z" fill="url(#paint1_linear_478_171)"/>
<path d="M24.7269 19.7987L20.7138 15.7212V9.27061C20.7219 9.17561 20.7269 9.07936 20.7269 8.98186C20.7269 8.39792 20.5866 7.82252 20.3179 7.30408C20.0492 6.78565 19.6598 6.33935 19.1827 6.00276C18.7055 5.66617 18.1544 5.44912 17.5759 5.36989C16.9973 5.29067 16.4082 5.35157 15.8581 5.54749L15.8544 5.52686L15.7606 5.58374C15.3449 5.74557 14.9624 5.98219 14.6319 6.28186L7.27251 10.8319C7.22688 10.8594 7.18126 10.8862 7.13688 10.9156L7.01126 10.9931L7.01438 10.9987C6.5379 11.3345 6.14903 11.7799 5.8805 12.2972C5.61196 12.8146 5.47161 13.3889 5.47126 13.9719L5.45813 13.9637V36.3237C5.4156 36.7169 5.45717 37.1147 5.58007 37.4906C5.70298 37.8665 5.90442 38.212 6.17102 38.5041C6.43763 38.7962 6.7633 39.0283 7.12644 39.1849C7.48958 39.3416 7.88188 39.4192 8.27731 39.4127C8.67274 39.4062 9.06227 39.3157 9.42005 39.1471C9.77783 38.9786 10.0957 38.7359 10.3525 38.4351C10.6093 38.1344 10.7993 37.7825 10.9097 37.4027C11.0202 37.023 11.0486 36.6241 10.9931 36.2325V17.2031L10.9038 17.1512L10.9444 17.1281L10.9931 17.2031L17.0681 13.2387V17.4731L22.2488 22.4862L22.26 22.4744C22.4329 22.6512 22.6399 22.791 22.8685 22.8852C23.097 22.9795 23.3424 23.0262 23.5896 23.0227C23.8369 23.0191 24.0808 22.9652 24.3066 22.8644C24.5323 22.7635 24.7352 22.6178 24.9028 22.4361C25.0705 22.2543 25.1994 22.0404 25.2817 21.8072C25.3641 21.5741 25.3981 21.3266 25.3817 21.0799C25.3654 20.8332 25.299 20.5924 25.1867 20.3721C25.0743 20.1519 24.9183 19.9568 24.7281 19.7987H24.7269Z" fill="url(#paint2_linear_478_171)"/>
<path d="M33.0238 10.682C33.0238 10.8431 32.9598 10.9976 32.8458 11.1115C32.7319 11.2255 32.5774 11.2895 32.4163 11.2895C32.2552 11.2895 32.1006 11.2255 31.9867 11.1115C31.8728 10.9976 31.8088 10.8431 31.8088 10.682C31.8088 10.5208 31.8728 10.3663 31.9867 10.2524C32.1006 10.1385 32.2552 10.0745 32.4163 10.0745C32.5774 10.0745 32.7319 10.1385 32.8458 10.2524C32.9598 10.3663 33.0238 10.5208 33.0238 10.682Z" fill="url(#paint3_linear_478_171)"/>
<path d="M31.6062 11.3568C31.6062 11.5179 31.5422 11.6724 31.4283 11.7863C31.3144 11.9003 31.1599 11.9643 30.9987 11.9643C30.8376 11.9643 30.6831 11.9003 30.5692 11.7863C30.4552 11.6724 30.3912 11.5179 30.3912 11.3568C30.3912 11.1956 30.4552 11.0411 30.5692 10.9272C30.6831 10.8133 30.8376 10.7493 30.9987 10.7493C31.1599 10.7493 31.3144 10.8133 31.4283 10.9272C31.5422 11.0411 31.6062 11.1956 31.6062 11.3568Z" fill="url(#paint4_linear_478_171)"/>
<path d="M28.1719 8.17685C28.1715 8.05609 28.219 7.94012 28.3041 7.85444C28.3892 7.76876 28.5049 7.72039 28.6256 7.71997C28.7464 7.71956 28.8624 7.76713 28.948 7.85223C29.0337 7.93732 29.0821 8.05297 29.0825 8.17372C29.0827 8.23352 29.0711 8.29276 29.0484 8.34808C29.0258 8.4034 28.9924 8.45371 28.9502 8.49614C28.8652 8.58182 28.7495 8.63018 28.6288 8.6306C28.569 8.6308 28.5097 8.61923 28.4544 8.59654C28.3991 8.57385 28.3488 8.54048 28.3063 8.49835C28.2207 8.41325 28.1723 8.2976 28.1719 8.17685Z" fill="url(#paint5_linear_478_171)"/>
<path d="M27.6413 8.64005C27.6435 8.70135 27.6334 8.76247 27.6115 8.81977C27.5896 8.87706 27.5564 8.92936 27.5138 8.97353C27.4713 9.01769 27.4203 9.05282 27.3638 9.07682C27.3074 9.10082 27.2467 9.11318 27.1853 9.11318C27.124 9.11318 27.0633 9.10082 27.0068 9.07682C26.9504 9.05282 26.8993 9.01769 26.8568 8.97353C26.8142 8.92936 26.781 8.87706 26.7591 8.81977C26.7372 8.76247 26.7271 8.70135 26.7294 8.64005C26.7337 8.52205 26.7837 8.41034 26.8687 8.3284C26.9538 8.24646 27.0672 8.20068 27.1853 8.20068C27.3034 8.20068 27.4169 8.24646 27.5019 8.3284C27.5869 8.41034 27.6369 8.52205 27.6413 8.64005Z" fill="url(#paint6_linear_478_171)"/>
<path d="M26.4338 9.71945C26.4361 9.78066 26.426 9.84171 26.4042 9.89894C26.3824 9.95618 26.3492 10.0084 26.3068 10.0526C26.2643 10.0967 26.2133 10.1318 26.157 10.1558C26.1006 10.1798 26.04 10.1922 25.9788 10.1923C25.9175 10.1923 25.8569 10.18 25.8005 10.1561C25.7441 10.1321 25.6931 10.0971 25.6506 10.053C25.608 10.0089 25.5748 9.95673 25.5529 9.89953C25.531 9.84232 25.5209 9.78129 25.5231 9.72007C25.5274 9.60223 25.5772 9.49064 25.6621 9.40876C25.7469 9.32688 25.8602 9.28109 25.9781 9.28101C26.0961 9.28093 26.2094 9.32656 26.2944 9.40833C26.3793 9.49009 26.4293 9.60161 26.4338 9.71945Z" fill="url(#paint7_linear_478_171)"/>
<path d="M25.8188 11.2307C25.8188 11.3517 25.7707 11.4677 25.6851 11.5533C25.5996 11.6388 25.4835 11.6869 25.3625 11.6869C25.2415 11.6869 25.1254 11.6388 25.0399 11.5533C24.9543 11.4677 24.9062 11.3517 24.9062 11.2307C24.9062 11.1097 24.9543 10.9936 25.0399 10.908C25.1254 10.8225 25.2415 10.7744 25.3625 10.7744C25.4835 10.7744 25.5996 10.8225 25.6851 10.908C25.7707 10.9936 25.8188 11.1097 25.8188 11.2307Z" fill="url(#paint8_linear_478_171)"/>
<path d="M25.8188 12.7238C25.8188 12.8448 25.7707 12.9609 25.6851 13.0464C25.5996 13.132 25.4835 13.1801 25.3625 13.1801C25.2415 13.1801 25.1254 13.132 25.0399 13.0464C24.9543 12.9609 24.9062 12.8448 24.9062 12.7238C24.9062 12.6028 24.9543 12.4868 25.0399 12.4012C25.1254 12.3156 25.2415 12.2676 25.3625 12.2676C25.4835 12.2676 25.5996 12.3156 25.6851 12.4012C25.7707 12.4868 25.8188 12.6028 25.8188 12.7238Z" fill="url(#paint9_linear_478_171)"/>
<path d="M27.2437 12.7238C27.2437 12.8448 27.1957 12.9609 27.1101 13.0464C27.0245 13.132 26.9085 13.1801 26.7875 13.1801C26.6665 13.1801 26.5504 13.132 26.4649 13.0464C26.3793 12.9609 26.3312 12.8448 26.3312 12.7238C26.3312 12.6028 26.3793 12.4868 26.4649 12.4012C26.5504 12.3156 26.6665 12.2676 26.7875 12.2676C26.9085 12.2676 27.0245 12.3156 27.1101 12.4012C27.1957 12.4868 27.2437 12.6028 27.2437 12.7238Z" fill="url(#paint10_linear_478_171)"/>
<path d="M27.2437 11.34C27.2437 11.461 27.1957 11.5771 27.1101 11.6627C27.0245 11.7482 26.9085 11.7963 26.7875 11.7963C26.6665 11.7963 26.5504 11.7482 26.4649 11.6627C26.3793 11.5771 26.3312 11.461 26.3312 11.34C26.3312 11.219 26.3793 11.103 26.4649 11.0174C26.5504 10.9319 26.6665 10.8838 26.7875 10.8838C26.9085 10.8838 27.0245 10.9319 27.1101 11.0174C27.1957 11.103 27.2437 11.219 27.2437 11.34Z" fill="url(#paint11_linear_478_171)"/>
<path d="M27.8175 10.0569C27.8198 10.1181 27.8097 10.1791 27.7879 10.2363C27.7661 10.2936 27.733 10.3458 27.6905 10.39C27.648 10.4341 27.5971 10.4692 27.5407 10.4932C27.4844 10.5172 27.4237 10.5296 27.3625 10.5297C27.3012 10.5297 27.2406 10.5174 27.1842 10.4935C27.1278 10.4695 27.0768 10.4345 27.0343 10.3904C26.9918 10.3463 26.9586 10.2941 26.9367 10.2369C26.9148 10.1797 26.9046 10.1187 26.9069 10.0575C26.9111 9.93964 26.9609 9.82805 27.0458 9.74616C27.1307 9.66428 27.2439 9.61849 27.3619 9.61841C27.4798 9.61833 27.5931 9.66397 27.6781 9.74573C27.7631 9.8275 27.813 9.93902 27.8175 10.0569Z" fill="url(#paint12_linear_478_171)"/>
<path d="M29.0662 9.48429C29.0685 9.54558 29.0584 9.60671 29.0365 9.664C29.0146 9.7213 28.9814 9.7736 28.9388 9.81776C28.8963 9.86193 28.8452 9.89706 28.7888 9.92106C28.7323 9.94505 28.6716 9.95742 28.6103 9.95742C28.549 9.95742 28.4883 9.94505 28.4318 9.92106C28.3754 9.89706 28.3243 9.86193 28.2818 9.81776C28.2392 9.7736 28.206 9.7213 28.1841 9.664C28.1622 9.60671 28.1521 9.54558 28.1544 9.48429C28.1587 9.36629 28.2087 9.25458 28.2937 9.17264C28.3787 9.0907 28.4922 9.04492 28.6103 9.04492C28.7284 9.04492 28.8419 9.0907 28.9269 9.17264C29.0119 9.25458 29.0619 9.36629 29.0662 9.48429Z" fill="url(#paint13_linear_478_171)"/>
<path d="M30.5894 8.35696C30.5894 8.4899 30.5365 8.6174 30.4425 8.7114C30.3485 8.8054 30.221 8.85821 30.0881 8.85821C29.9552 8.85821 29.8277 8.8054 29.7337 8.7114C29.6397 8.6174 29.5869 8.4899 29.5869 8.35696C29.5869 8.22402 29.6397 8.09653 29.7337 8.00253C29.8277 7.90852 29.9552 7.85571 30.0881 7.85571C30.221 7.85571 30.3485 7.90852 30.4425 8.00253C30.5365 8.09653 30.5894 8.22402 30.5894 8.35696Z" fill="url(#paint14_linear_478_171)"/>
<path d="M30.53 9.93558C30.53 10.0014 30.5171 10.0666 30.4919 10.1274C30.4667 10.1882 30.4298 10.2435 30.3832 10.29C30.3367 10.3366 30.2814 10.3735 30.2206 10.3987C30.1598 10.4239 30.0946 10.4368 30.0288 10.4368C29.963 10.4368 29.8978 10.4239 29.837 10.3987C29.7761 10.3735 29.7209 10.3366 29.6743 10.29C29.6278 10.2435 29.5909 10.1882 29.5657 10.1274C29.5405 10.0666 29.5275 10.0014 29.5275 9.93558C29.5275 9.80264 29.5803 9.67514 29.6743 9.58114C29.7683 9.48714 29.8958 9.43433 30.0288 9.43433C30.1617 9.43433 30.2892 9.48714 30.3832 9.58114C30.4772 9.67514 30.53 9.80264 30.53 9.93558Z" fill="url(#paint15_linear_478_171)"/>
<path d="M31.9637 9.1763C31.9637 9.30924 31.9109 9.43673 31.8169 9.53074C31.7229 9.62474 31.5954 9.67755 31.4625 9.67755C31.3296 9.67755 31.2021 9.62474 31.1081 9.53074C31.0141 9.43673 30.9612 9.30924 30.9612 9.1763C30.9612 9.04336 31.0141 8.91586 31.1081 8.82186C31.2021 8.72786 31.3296 8.67505 31.4625 8.67505C31.5954 8.67505 31.7229 8.72786 31.8169 8.82186C31.9109 8.91586 31.9637 9.04336 31.9637 9.1763Z" fill="url(#paint16_linear_478_171)"/>
<defs>
<linearGradient id="paint0_linear_478_171" x1="29.1981" y1="13.8301" x2="29.1981" y2="24.1582" gradientUnits="userSpaceOnUse">
<stop stop-color="#E86C2E"/>
<stop offset="1" stop-color="#E89A50"/>
</linearGradient>
<linearGradient id="paint1_linear_478_171" x1="24.3038" y1="0.679443" x2="24.3038" y2="7.96944" gradientUnits="userSpaceOnUse">
<stop stop-color="#E86C2E"/>
<stop offset="1" stop-color="#E89A50"/>
</linearGradient>
<linearGradient id="paint2_linear_478_171" x1="15.4138" y1="5.33618" x2="15.4138" y2="39.4131" gradientUnits="userSpaceOnUse">
<stop stop-color="#E86C2E"/>
<stop offset="1" stop-color="#E89A50"/>
</linearGradient>
<linearGradient id="paint3_linear_478_171" x1="32.4163" y1="10.0745" x2="32.4163" y2="11.2895" gradientUnits="userSpaceOnUse">
<stop stop-color="#E86C2E"/>
<stop offset="1" stop-color="#E89A50"/>
</linearGradient>
<linearGradient id="paint4_linear_478_171" x1="30.9987" y1="10.7493" x2="30.9987" y2="11.9643" gradientUnits="userSpaceOnUse">
<stop stop-color="#E86C2E"/>
<stop offset="1" stop-color="#E89A50"/>
</linearGradient>
<linearGradient id="paint5_linear_478_171" x1="28.6272" y1="7.71997" x2="28.6272" y2="8.6306" gradientUnits="userSpaceOnUse">
<stop stop-color="#E86C2E"/>
<stop offset="1" stop-color="#E89A50"/>
</linearGradient>
<linearGradient id="paint6_linear_478_171" x1="27.1853" y1="8.20068" x2="27.1853" y2="9.11318" gradientUnits="userSpaceOnUse">
<stop stop-color="#E86C2E"/>
<stop offset="1" stop-color="#E89A50"/>
</linearGradient>
<linearGradient id="paint7_linear_478_171" x1="25.9785" y1="9.28101" x2="25.9785" y2="10.1923" gradientUnits="userSpaceOnUse">
<stop stop-color="#E86C2E"/>
<stop offset="1" stop-color="#E89A50"/>
</linearGradient>
<linearGradient id="paint8_linear_478_171" x1="25.3625" y1="10.7744" x2="25.3625" y2="11.6869" gradientUnits="userSpaceOnUse">
<stop stop-color="#E86C2E"/>
<stop offset="1" stop-color="#E89A50"/>
</linearGradient>
<linearGradient id="paint9_linear_478_171" x1="25.3625" y1="12.2676" x2="25.3625" y2="13.1801" gradientUnits="userSpaceOnUse">
<stop stop-color="#E86C2E"/>
<stop offset="1" stop-color="#E89A50"/>
</linearGradient>
<linearGradient id="paint10_linear_478_171" x1="26.7875" y1="12.2676" x2="26.7875" y2="13.1801" gradientUnits="userSpaceOnUse">
<stop stop-color="#E86C2E"/>
<stop offset="1" stop-color="#E89A50"/>
</linearGradient>
<linearGradient id="paint11_linear_478_171" x1="26.7875" y1="10.8838" x2="26.7875" y2="11.7963" gradientUnits="userSpaceOnUse">
<stop stop-color="#E86C2E"/>
<stop offset="1" stop-color="#E89A50"/>
</linearGradient>
<linearGradient id="paint12_linear_478_171" x1="27.3622" y1="9.61841" x2="27.3622" y2="10.5297" gradientUnits="userSpaceOnUse">
<stop stop-color="#E86C2E"/>
<stop offset="1" stop-color="#E89A50"/>
</linearGradient>
<linearGradient id="paint13_linear_478_171" x1="28.6103" y1="9.04492" x2="28.6103" y2="9.95742" gradientUnits="userSpaceOnUse">
<stop stop-color="#E86C2E"/>
<stop offset="1" stop-color="#E89A50"/>
</linearGradient>
<linearGradient id="paint14_linear_478_171" x1="30.0881" y1="7.85571" x2="30.0881" y2="8.85821" gradientUnits="userSpaceOnUse">
<stop stop-color="#E86C2E"/>
<stop offset="1" stop-color="#E89A50"/>
</linearGradient>
<linearGradient id="paint15_linear_478_171" x1="30.0288" y1="9.43433" x2="30.0288" y2="10.4368" gradientUnits="userSpaceOnUse">
<stop stop-color="#E86C2E"/>
<stop offset="1" stop-color="#E89A50"/>
</linearGradient>
<linearGradient id="paint16_linear_478_171" x1="31.4625" y1="8.67505" x2="31.4625" y2="9.67755" gradientUnits="userSpaceOnUse">
<stop stop-color="#E86C2E"/>
<stop offset="1" stop-color="#E89A50"/>
</linearGradient>
</defs>
</svg>
