<svg width="40" height="40" viewBox="0 0 40 40" fill="none" xmlns="http://www.w3.org/2000/svg">
<g clip-path="url(#clip0_151_73)">
<path d="M20 33.75C19.7125 33.75 19.4237 33.6512 19.19 33.4525C18.8875 33.195 11.7625 27.0775 8.79 20.405C8.50875 19.775 8.7925 19.035 9.42375 18.755C10.0525 18.475 10.7925 18.7575 11.0738 19.3888C13.2475 24.27 18.045 29.0125 19.9788 30.8013C23.3912 27.4888 30 20.0863 30 15.2875C30 9.615 25.5138 5 20 5C14.4863 5 10 9.615 10 15.2875C10 15.9775 9.44 16.5375 8.75 16.5375C8.06 16.5375 7.5 15.9775 7.5 15.2875C7.5 8.23625 13.1075 2.5 20 2.5C26.8925 2.5 32.5 8.23625 32.5 15.2875C32.5 22.6775 21.32 32.9863 20.8437 33.4225C20.605 33.64 20.3025 33.75 20 33.75Z" fill="url(#paint0_linear_151_73)"/>
<path d="M20 20C17.2425 20 15 17.7575 15 15C15 12.2425 17.2425 10 20 10C22.7575 10 25 12.2425 25 15C25 17.7575 22.7575 20 20 20ZM20 12.5C18.6212 12.5 17.5 13.6212 17.5 15C17.5 16.3787 18.6212 17.5 20 17.5C21.3787 17.5 22.5 16.3787 22.5 15C22.5 13.6212 21.3787 12.5 20 12.5Z" fill="url(#paint1_linear_151_73)"/>
<path d="M36.25 37.5001H3.75001C3.30501 37.5001 2.89251 37.2638 2.66876 36.8776C2.44501 36.4913 2.44376 36.0176 2.66501 35.6301L7.66501 26.8801C8.00751 26.2813 8.77126 26.0713 9.37001 26.4151C9.96876 26.7576 10.1775 27.5213 9.83501 28.1201L5.90376 35.0001H34.095L30.1638 28.1201C29.8213 27.5213 30.03 26.7576 30.6288 26.4151C31.2275 26.0701 31.9913 26.2813 32.3338 26.8801L37.3338 35.6301C37.555 36.0176 37.5538 36.4913 37.33 36.8776C37.1075 37.2638 36.695 37.5001 36.25 37.5001Z" fill="url(#paint2_linear_151_73)"/>
</g>
<defs>
<linearGradient id="paint0_linear_151_73" x1="20" y1="2.5" x2="20" y2="33.75" gradientUnits="userSpaceOnUse">
<stop stop-color="#E86C2E"/>
<stop offset="1" stop-color="#E89A50"/>
</linearGradient>
<linearGradient id="paint1_linear_151_73" x1="20" y1="10" x2="20" y2="20" gradientUnits="userSpaceOnUse">
<stop stop-color="#E86C2E"/>
<stop offset="1" stop-color="#E89A50"/>
</linearGradient>
<linearGradient id="paint2_linear_151_73" x1="19.9994" y1="26.2491" x2="19.9994" y2="37.5001" gradientUnits="userSpaceOnUse">
<stop stop-color="#E86C2E"/>
<stop offset="1" stop-color="#E89A50"/>
</linearGradient>
<clipPath id="clip0_151_73">
<rect width="40" height="40" fill="white"/>
</clipPath>
</defs>
</svg>
