<svg width="25" height="35" viewBox="0 0 25 35" fill="none" xmlns="http://www.w3.org/2000/svg">
<circle cx="2.5" cy="2.5" r="2.5" fill="url(#paint0_linear_126_125)"/>
<circle cx="2.5" cy="12.5" r="2.5" fill="url(#paint1_linear_126_125)"/>
<circle cx="2.5" cy="22.5" r="2.5" fill="url(#paint2_linear_126_125)"/>
<circle cx="2.5" cy="32.5" r="2.5" fill="url(#paint3_linear_126_125)"/>
<circle cx="12.5" cy="2.5" r="2.5" fill="url(#paint4_linear_126_125)"/>
<circle cx="12.5" cy="12.5" r="2.5" fill="url(#paint5_linear_126_125)"/>
<circle cx="12.5" cy="22.5" r="2.5" fill="url(#paint6_linear_126_125)"/>
<circle cx="12.5" cy="32.5" r="2.5" fill="url(#paint7_linear_126_125)"/>
<circle cx="22.5" cy="2.5" r="2.5" fill="url(#paint8_linear_126_125)"/>
<circle cx="22.5" cy="12.5" r="2.5" fill="url(#paint9_linear_126_125)"/>
<circle cx="22.5" cy="22.5" r="2.5" fill="url(#paint10_linear_126_125)"/>
<circle cx="22.5" cy="32.5" r="2.5" fill="url(#paint11_linear_126_125)"/>
<defs>
<linearGradient id="paint0_linear_126_125" x1="2.5" y1="0" x2="2.5" y2="5" gradientUnits="userSpaceOnUse">
<stop stop-color="#E86C2E"/>
<stop offset="1" stop-color="#E89A50"/>
</linearGradient>
<linearGradient id="paint1_linear_126_125" x1="2.5" y1="10" x2="2.5" y2="15" gradientUnits="userSpaceOnUse">
<stop stop-color="#E86C2E"/>
<stop offset="1" stop-color="#E89A50"/>
</linearGradient>
<linearGradient id="paint2_linear_126_125" x1="2.5" y1="20" x2="2.5" y2="25" gradientUnits="userSpaceOnUse">
<stop stop-color="#E86C2E"/>
<stop offset="1" stop-color="#E89A50"/>
</linearGradient>
<linearGradient id="paint3_linear_126_125" x1="2.5" y1="30" x2="2.5" y2="35" gradientUnits="userSpaceOnUse">
<stop stop-color="#E86C2E"/>
<stop offset="1" stop-color="#E89A50"/>
</linearGradient>
<linearGradient id="paint4_linear_126_125" x1="12.5" y1="0" x2="12.5" y2="5" gradientUnits="userSpaceOnUse">
<stop stop-color="#E86C2E"/>
<stop offset="1" stop-color="#E89A50"/>
</linearGradient>
<linearGradient id="paint5_linear_126_125" x1="12.5" y1="10" x2="12.5" y2="15" gradientUnits="userSpaceOnUse">
<stop stop-color="#E86C2E"/>
<stop offset="1" stop-color="#E89A50"/>
</linearGradient>
<linearGradient id="paint6_linear_126_125" x1="12.5" y1="20" x2="12.5" y2="25" gradientUnits="userSpaceOnUse">
<stop stop-color="#E86C2E"/>
<stop offset="1" stop-color="#E89A50"/>
</linearGradient>
<linearGradient id="paint7_linear_126_125" x1="12.5" y1="30" x2="12.5" y2="35" gradientUnits="userSpaceOnUse">
<stop stop-color="#E86C2E"/>
<stop offset="1" stop-color="#E89A50"/>
</linearGradient>
<linearGradient id="paint8_linear_126_125" x1="22.5" y1="0" x2="22.5" y2="5" gradientUnits="userSpaceOnUse">
<stop stop-color="#E86C2E"/>
<stop offset="1" stop-color="#E89A50"/>
</linearGradient>
<linearGradient id="paint9_linear_126_125" x1="22.5" y1="10" x2="22.5" y2="15" gradientUnits="userSpaceOnUse">
<stop stop-color="#E86C2E"/>
<stop offset="1" stop-color="#E89A50"/>
</linearGradient>
<linearGradient id="paint10_linear_126_125" x1="22.5" y1="20" x2="22.5" y2="25" gradientUnits="userSpaceOnUse">
<stop stop-color="#E86C2E"/>
<stop offset="1" stop-color="#E89A50"/>
</linearGradient>
<linearGradient id="paint11_linear_126_125" x1="22.5" y1="30" x2="22.5" y2="35" gradientUnits="userSpaceOnUse">
<stop stop-color="#E86C2E"/>
<stop offset="1" stop-color="#E89A50"/>
</linearGradient>
</defs>
</svg>
