<svg width="158" height="58" viewBox="0 0 158 58" fill="none" xmlns="http://www.w3.org/2000/svg">
<g id="Gympass 1" clip-path="url(#clip0_126_499)">
<g id="Group">
<path id="Vector" d="M0.857978 0.179405C0.669633 0.274487 0.408044 0.496346 0.282481 0.675941L0.0522823 1.00345L0.0208916 23.1364C0.010428 35.3069 0.0208916 45.4173 0.0522823 45.6075C0.135991 46.0617 0.606852 46.5477 1.13003 46.7062C1.92526 46.9386 2.13453 46.8118 4.77136 44.382L7.16751 42.1634L7.21983 49.6009C7.27215 56.9116 7.27215 57.0384 7.49189 57.3342C7.94182 57.9575 8.84169 58.1794 9.49043 57.8096C9.66831 57.7146 14.5025 53.3091 20.2156 48.0373C27.5192 41.2971 30.6792 38.3073 30.8466 38.0009C31.4221 36.9233 31.3384 36.8177 26.3891 32.2643C24.0767 30.1302 22.1932 28.3448 22.2037 28.3131C22.2246 28.2708 23.1559 27.394 24.2755 26.3586C25.3951 25.3233 26.3996 24.3302 26.4937 24.1506C26.7658 23.6858 26.7344 22.9463 26.4519 22.5342C26.0543 21.9954 2.50076 0.306179 2.13453 0.147709C1.6846 -0.0424538 1.28698 -0.0318909 0.857978 0.179405ZM13.498 14.7375C18.5937 19.4282 22.7792 23.2949 22.8106 23.3266C22.8629 23.3688 21.5026 24.6894 20.3935 25.6719L19.8075 26.1896L14.7641 21.52C11.9808 18.9528 9.5846 16.7976 9.43811 16.7237C8.68473 16.3856 7.76394 16.7025 7.40818 17.4315C7.2303 17.7801 7.21983 18.4985 7.21983 27.8588V37.9164L6.91639 38.1594C6.74897 38.2967 5.82818 39.1313 4.87599 40.0187L3.13904 41.6457V23.39V5.14479L3.69361 5.66246C3.98659 5.94771 8.40222 10.0362 13.498 14.7375ZM14.1781 25.2493C15.9674 26.8974 17.4323 28.2708 17.4532 28.3131C17.4741 28.3765 10.6205 34.7787 10.4426 34.8421C10.4008 34.8632 10.3589 31.9157 10.3589 28.3025V21.7207L10.6519 21.9954C10.8088 22.1433 12.3993 23.6118 14.1781 25.2493ZM23.5744 33.9335L27.1948 37.2825L25.9706 38.4235C25.3009 39.0574 21.6596 42.4275 17.8927 45.9033C14.1258 49.379 10.8821 52.3688 10.7042 52.5379L10.3589 52.8654V46.0406V39.2158L15.0466 34.8738C17.6206 32.4861 19.7761 30.5528 19.8389 30.5634C19.9017 30.5739 21.5863 32.0952 23.5744 33.9335Z" fill="white"/>
<path id="Vector_2" d="M44.5225 16.0685C43.0053 16.2903 41.1114 17.0087 39.8976 17.8222C36.6853 19.9668 34.8751 24.235 35.2727 28.7461C35.7749 34.5989 39.4791 38.3494 45.3805 38.9938C48.4568 39.3213 52.2446 38.4233 54.8082 36.7435L55.4569 36.3209V31.4189V26.5169H50.8006H46.1443V28.4186V30.3202H48.6556H51.1669V32V33.6798L50.7274 33.9439C48.53 35.2328 45.3282 35.2962 43.2145 34.0918C42.4716 33.6798 41.2579 32.4437 40.8393 31.6936C40.1906 30.5526 39.9394 29.5701 39.8871 27.9854C39.8243 26.1155 40.0022 25.1435 40.6719 23.7701C41.7706 21.4882 43.8842 20.1781 46.4792 20.1781C48.53 20.1781 50.3926 20.8648 51.7842 22.1326L52.2028 22.5235L53.7828 21.1607L55.3732 19.8084L54.6512 19.1217C52.5376 17.0933 49.4718 15.9311 46.3013 15.9628C45.6735 15.9734 44.8678 16.0157 44.5225 16.0685Z" fill="white"/>
<path id="Vector_3" d="M79.8998 23.2C79.0209 23.4113 77.964 24.0134 77.2316 24.7107L76.5933 25.3023V24.2776V23.2422L74.532 23.2634L72.4602 23.2951V31.0601V38.8251L74.532 38.8568L76.5933 38.8779V34.6204C76.5933 32.1905 76.6352 30.1093 76.698 29.7923C77.0433 27.9435 78.2152 26.8131 79.7847 26.792C80.7055 26.7814 81.3647 27.0772 81.8251 27.7111C82.4843 28.6091 82.4948 28.7253 82.5366 34.0393L82.568 38.8779H84.6607H86.743V34.4091C86.743 29.581 86.7639 29.3592 87.3289 28.3133C87.8731 27.3096 88.6997 26.8025 89.8297 26.8025C90.9284 26.792 91.5772 27.1934 92.0585 28.1548C92.4561 28.9683 92.498 29.5388 92.498 34.2823V38.8779H94.5907H96.6834V33.9337C96.6834 28.6936 96.6101 27.6688 96.1602 26.3694C95.4382 24.2353 93.6594 23.0415 91.2214 23.0309C89.4531 23.0309 87.758 23.6754 86.5128 24.8269L85.8222 25.4608L85.435 24.9326C84.7758 24.024 83.9178 23.4747 82.7459 23.1894C81.9297 22.9992 80.716 22.9992 79.8998 23.2Z" fill="white"/>
<path id="Vector_4" d="M106.341 23.1889C105.431 23.3897 104.447 23.9073 103.757 24.5307L103.171 25.0589V24.1503V23.2418H101.13H99.0901V33.8064V44.3711H101.13H103.171V40.7157V37.0603L103.799 37.6414C104.95 38.719 106.258 39.1416 108.141 39.0571C112.379 38.8563 115.12 35.7398 115.12 31.1124C115.12 27.3514 113.205 24.3827 110.14 23.3897C109.083 23.041 107.346 22.9565 106.341 23.1889ZM108.664 27.1401C110.297 27.9008 111.155 29.7179 110.903 31.852C110.663 33.7853 109.25 35.201 107.388 35.3594C106.059 35.4651 104.73 34.9263 103.956 33.9649C102.606 32.3062 102.7 29.5911 104.175 27.9959C105.305 26.7704 107.126 26.4217 108.664 27.1401Z" fill="white"/>
<path id="Vector_5" d="M121.587 23.2423C118.866 23.9712 117.035 25.9574 116.282 29.0106C116.041 30.0142 116.041 32.3279 116.292 33.2787C116.742 35.0113 117.496 36.3636 118.531 37.2933C119.274 37.9694 120.739 38.6984 121.838 38.9414C122.999 39.1949 124.611 39.1104 125.605 38.7406C126.431 38.4343 127.352 37.8215 127.75 37.325L128.022 36.9763L128.074 37.8955L128.127 38.8252L130.094 38.8569L132.05 38.878V31.0601V23.2423H130.01H127.97V24.1403C127.97 25.0488 127.907 25.1967 127.687 24.8376C127.457 24.4678 126.191 23.6437 125.427 23.3691C124.381 22.9993 122.706 22.9359 121.587 23.2423ZM125.835 27.1618C126.63 27.5421 127.258 28.2077 127.687 29.1374C128.001 29.8135 128.022 29.9086 128.022 31.113C128.022 32.2645 128.001 32.4335 127.739 32.9829C127.174 34.1978 126.327 34.9374 125.144 35.2437C123.721 35.6029 122.319 35.1909 121.336 34.1133C120.666 33.3844 120.352 32.6343 120.268 31.5567C120.111 29.6339 120.938 27.9647 122.434 27.204C123.512 26.6441 124.757 26.6335 125.835 27.1618Z" fill="white"/>
<path id="Vector_6" d="M137.837 23.1891C135.189 23.7702 133.599 25.8937 133.944 28.3869C134.216 30.3731 135.66 31.7571 138.381 32.6445C141.059 33.5214 141.698 34.0073 141.321 34.9053C141.091 35.4653 140.473 35.7399 139.49 35.7294C138.098 35.7188 137.125 35.3807 135.922 34.4828C135.576 34.2292 135.273 34.0179 135.252 34.0179C135.231 34.0179 134.781 34.6412 134.248 35.3913C133.138 36.9866 133.138 36.8281 134.331 37.6205C135.943 38.6875 137.742 39.1523 139.95 39.0573C142.66 38.9516 144.219 38.0747 145.098 36.1731C145.37 35.6026 145.391 35.4441 145.391 34.282C145.391 33.1305 145.37 32.9614 145.109 32.4121C144.554 31.2183 143.686 30.6161 140.955 29.5385C138.36 28.5032 137.91 28.2073 137.91 27.4889C137.91 26.8128 138.485 26.4114 139.458 26.4114C140.547 26.4114 141.917 26.9713 142.744 27.7636C142.901 27.9115 143.047 28.0172 143.068 27.9855C143.089 27.9644 143.55 27.2777 144.083 26.4747L145.056 24.9957L144.774 24.7738C143.853 24.0237 142.273 23.3582 140.944 23.1469C140.034 22.999 138.632 23.0201 137.837 23.1891Z" fill="white"/>
<path id="Vector_7" d="M150.372 23.1889C147.17 23.8967 145.548 26.9605 146.909 29.7495C147.536 31.049 148.75 31.8836 151.251 32.7499C152.977 33.3521 153.616 33.6902 153.856 34.1339C154.034 34.4614 154.034 34.5248 153.888 34.884C153.595 35.5812 152.695 35.8665 151.314 35.6869C150.32 35.5601 149.462 35.2115 148.562 34.5459C148.164 34.2607 147.829 34.0177 147.798 34.0177C147.777 34.0177 147.327 34.641 146.793 35.4122L145.82 36.7962L146.291 37.2082C146.898 37.7364 148.426 38.4971 149.472 38.7929C150.602 39.0993 153.302 39.131 154.317 38.8563C156.284 38.2964 157.519 37.1131 157.895 35.3805C158.094 34.4614 157.989 33.1408 157.665 32.4118C157.131 31.2392 156.232 30.6158 153.511 29.5383C150.864 28.4818 150.466 28.2071 150.466 27.4676C150.466 26.8126 151.052 26.4111 152.015 26.4111C153.082 26.4111 154.149 26.8337 155.154 27.6577C155.405 27.8585 155.614 28.0064 155.635 27.9852C155.656 27.9641 156.106 27.2774 156.64 26.4745L157.613 24.9954L157.362 24.7947C156.462 24.0552 154.829 23.3579 153.501 23.1466C152.58 22.9882 151.188 23.0199 150.372 23.1889Z" fill="white"/>
<path id="Vector_8" d="M55.5615 23.3693C55.5615 23.4432 56.9323 26.7394 58.596 30.6906L61.6409 37.8851L60.5213 40.8326C59.9144 42.4596 59.3912 43.8224 59.3598 43.8647C59.3389 43.9175 60.2701 43.9492 61.4421 43.9492H63.5662L67.4691 33.6698C69.6141 28.0283 71.3615 23.3693 71.3615 23.3164C71.3615 23.2742 70.4093 23.253 69.2479 23.2636L67.1342 23.2953L65.4077 28.0177C64.4556 30.6166 63.6394 32.7718 63.608 32.8035C63.5662 32.8352 62.75 30.8596 61.7874 28.398C60.8247 25.9365 59.9667 23.7707 59.8934 23.5805L59.7574 23.2425H57.6647C56.0847 23.2425 55.5615 23.2742 55.5615 23.3693Z" fill="white"/>
</g>
</g>
<defs>
<clipPath id="clip0_126_499">
<rect width="158" height="58" fill="white"/>
</clipPath>
</defs>
</svg>
