<svg width="284" height="88" viewBox="0 0 284 88" fill="none" xmlns="http://www.w3.org/2000/svg">
<g clip-path="url(#clip0_547_68)">
<mask id="mask0_547_68" style="mask-type:luminance" maskUnits="userSpaceOnUse" x="-18" y="-7" width="97" height="97">
<path d="M30.7914 89.8684C57.4163 89.8684 79 68.2148 79 41.5038C79 14.7927 57.4163 -6.8609 30.7914 -6.8609C4.16646 -6.8609 -17.4173 14.7927 -17.4173 41.5038C-17.4173 68.2148 4.16646 89.8684 30.7914 89.8684Z" fill="white"/>
</mask>
<g mask="url(#mask0_547_68)">
<path d="M10.0616 14.4196C4.47038 14.4196 -0.0621948 26.5455 -0.0621948 41.5038C-0.0621948 56.462 4.47038 68.588 10.0616 68.588H25.5038V14.4196H10.0616Z" fill="url(#paint0_linear_547_68)"/>
<path d="M26.9346 2.81201C18.9474 2.81201 12.472 20.3519 12.472 41.9874C12.472 63.6238 18.9465 81.1628 26.9346 81.1628H43.3256V2.81201H26.9346Z" fill="url(#paint1_linear_547_68)"/>
<path d="M43.3256 2.81201C51.3118 2.81201 57.7882 20.3519 57.7882 41.9874C57.7882 63.6238 51.3118 81.1628 43.3256 81.1628C35.3374 81.1628 28.863 63.6238 28.863 41.9874C28.863 20.3519 35.3374 2.81201 43.3256 2.81201Z" fill="url(#paint2_linear_547_68)"/>
<path d="M45.254 30.8635C43.1241 30.8635 41.3973 36.0608 41.3973 42.471C41.3973 48.8813 43.1241 54.0786 45.254 54.0786C46.2297 54.0786 47.1187 52.9768 47.7984 51.1767H78.9981C80.1575 45.4411 80.2741 39.5426 79.3423 33.7654H47.7984C47.1187 31.9653 46.2297 30.8635 45.254 30.8635Z" fill="white"/>
<path d="M45.254 54.0785C46.2297 54.0785 47.1187 52.9768 47.7984 51.1766H78.9981C79.5689 48.357 79.8813 45.4454 79.9401 42.471H41.3973C41.3973 48.8813 43.1241 54.0785 45.254 54.0785Z" fill="#EDEDEF"/>
</g>
</g>
<path d="M76.624 19.2H95.248V25.6H83.664V38.08H92.752V44.48H83.664V64H76.624V19.2ZM98.624 19.2H105.664V64H98.624V19.2ZM116.441 25.6H109.081V19.2H130.841V25.6H123.481V64H116.441V25.6ZM134.249 19.2H152.873V25.6H141.289V38.08H150.377V44.48H141.289V64H134.249V19.2ZM156.249 19.2H163.289V57.6H174.873V64H156.249V19.2ZM188.175 64.64C184.719 64.64 182.074 63.6587 180.239 61.696C178.404 59.7333 177.487 56.96 177.487 53.376V29.824C177.487 26.24 178.404 23.4667 180.239 21.504C182.074 19.5413 184.719 18.56 188.175 18.56C191.631 18.56 194.276 19.5413 196.111 21.504C197.946 23.4667 198.863 26.24 198.863 29.824V53.376C198.863 56.96 197.946 59.7333 196.111 61.696C194.276 63.6587 191.631 64.64 188.175 64.64ZM188.175 58.24C190.607 58.24 191.823 56.768 191.823 53.824V29.376C191.823 26.432 190.607 24.96 188.175 24.96C185.743 24.96 184.527 26.432 184.527 29.376V53.824C184.527 56.768 185.743 58.24 188.175 58.24ZM201.96 19.2H208.744L211.88 53.632H212.008L215.336 19.2H223.016L226.344 53.632H226.472L229.608 19.2H235.688L231.144 64H222.376L219.176 33.792H219.048L215.848 64H206.504L201.96 19.2Z" fill="white"/>
<defs>
<linearGradient id="paint0_linear_547_68" x1="-0.0621948" y1="14.4196" x2="26.3261" y2="14.4196" gradientUnits="userSpaceOnUse">
<stop stop-color="#E86C2E"/>
<stop offset="1" stop-color="#E89A50"/>
</linearGradient>
<linearGradient id="paint1_linear_547_68" x1="27.8988" y1="2.81201" x2="27.8988" y2="81.1628" gradientUnits="userSpaceOnUse">
<stop stop-color="#E86C2E"/>
<stop offset="1" stop-color="#E89A50"/>
</linearGradient>
<linearGradient id="paint2_linear_547_68" x1="43.3256" y1="2.81201" x2="43.3256" y2="81.1628" gradientUnits="userSpaceOnUse">
<stop stop-color="#11101C"/>
<stop offset="1" stop-color="#212035"/>
</linearGradient>
<clipPath id="clip0_547_68">
<rect width="79" height="83" fill="white" transform="translate(0 2.5)"/>
</clipPath>
</defs>
</svg>
