<svg width="453" height="152" viewBox="0 0 453 152" fill="none" xmlns="http://www.w3.org/2000/svg">
<g clip-path="url(#clip0_406_47)">
<path d="M248.822 0.844424C247.808 1.73606 246.187 6.07268 240.553 23.0544C236.013 36.7937 232.163 49.2362 232.163 50.2494C232.163 51.1816 234.027 52.8433 235.122 52.8433C237.189 52.8433 237.716 51.83 240.634 42.103C243.309 33.2272 248.66 17.1777 251.781 8.50442C252.591 6.31585 253.24 3.88411 253.24 3.15458C253.24 0.601249 250.727 -0.695682 248.822 0.844424Z" fill="#A71D31"/>
<path d="M222.84 14.0569C221.908 14.5838 214.044 19.6094 210.64 21.879C208.532 23.3381 208.005 24.4729 208.816 26.013C209.991 28.2421 217.328 34.1999 221.705 36.4695C225.232 38.2528 227.461 37.4017 227.218 34.362C227.137 33.1056 226.853 32.6192 225.759 31.9708C223.083 30.3496 218.544 27.3099 217.409 26.3778L216.274 25.4456L220.246 22.8517C225.921 19.1231 226.893 18.1909 226.893 16.5697C226.893 15.3133 226.042 13.9353 225.272 13.9353C225.069 13.9353 224.705 13.8543 224.38 13.7327C224.097 13.6111 223.408 13.7732 222.84 14.0569Z" fill="#A71D31"/>
<path d="M260.455 14.5839C259.077 15.3134 258.59 16.9751 259.361 18.3531C259.685 18.9205 261.671 20.3795 263.9 21.6359C266.049 22.8923 267.994 24.0677 268.237 24.3109C268.481 24.554 266.94 26.0131 263.738 28.5259C260.658 30.9576 258.793 32.7004 258.631 33.3489C258.064 35.6185 259.928 37.4828 262.238 36.9154C263.698 36.5507 275.574 26.9453 276.466 25.4457C277.844 23.0139 276.709 21.9602 266.413 16.205C264.184 14.9486 262.198 13.9354 261.955 13.9354C261.752 13.9759 261.063 14.2191 260.455 14.5839Z" fill="#A71D31"/>
<path d="M444.558 32.9029C443.787 33.3488 442.734 34.4025 442.247 35.2536C441.396 36.8343 428.182 72.8646 424.372 84.0912C422.507 89.5626 421.454 94.1829 420.805 99.857L420.562 102.086L424.534 103.261C426.763 103.91 429.925 104.883 431.587 105.41C433.249 105.936 434.911 106.342 435.275 106.342C435.924 106.342 438.234 101.883 440.099 97.02C441.518 93.4939 453.475 40.4819 453.475 37.9286C453.475 36.3479 452.178 34.1593 450.638 33.0651C448.976 31.9708 446.503 31.8897 444.558 32.9029Z" fill="#242424"/>
<path d="M26.8614 59.0848C18.4305 60.706 11.3371 64.7184 6.6758 70.4735C1.36593 76.9987 -1.18767 86.9283 -0.133804 96.5742C1.77126 113.515 12.4315 123.688 30.1446 125.431C35.6977 125.958 42.9126 125.39 48.8305 123.972C54.1403 122.675 56.0454 121.905 57.2614 120.446C58.9638 118.419 59.1259 116.839 59.0043 103.991C58.8827 90.5354 58.7611 90.0491 56.0454 88.7521C54.8294 88.1442 53.3297 88.0631 44.8582 88.1847L35.0897 88.3063L33.7115 89.8059C32.4955 91.1839 32.3334 91.5892 32.3334 93.5751C32.3334 98.317 33.9953 99.5329 40.7643 99.776L45.3446 99.9382L45.223 105.085L45.1014 110.192L42.4667 110.678C38.2107 111.489 31.6443 111.327 28.6043 110.395C23.5377 108.855 20.2545 105.734 18.5115 100.87C17.3361 97.4659 17.0118 89.7654 17.9035 85.9556C19.9707 77.1203 25.6454 73.0674 35.9814 73.0674C40.6833 73.0674 44.3313 73.7158 48.1414 75.337C50.8571 76.4718 52.4379 76.5934 54.3835 75.7828C58.1531 74.2022 59.6934 68.1228 57.1803 64.6373C56.2075 63.2593 51.1003 60.7465 47.0875 59.6928C42.9531 58.5985 31.2795 58.2337 26.8614 59.0848Z" fill="#242424"/>
<path d="M93.6604 59.1253C81.2572 61.9623 72.502 70.514 69.5836 82.6322C67.8812 89.6842 68.5297 99.776 71.0428 106.058C76.5553 119.554 90.2556 127.214 105.739 125.39C114.251 124.418 119.804 121.824 125.398 116.271C128.56 113.151 129.37 112.016 130.951 108.773C133.748 103.059 134.599 98.9249 134.599 91.7512C134.559 86.8067 134.396 85.2665 133.545 81.9432C130.627 70.7977 123.007 62.8945 112.184 59.6927C108.252 58.5579 97.5921 58.2336 93.6604 59.1253ZM108.131 73.9995C112.306 75.9449 114.9 79.3898 116.278 84.8613C117.413 89.2789 117.21 96.5742 115.913 100.708C114.251 105.815 110.441 109.706 105.983 110.84C102.861 111.61 97.3895 111.165 94.9575 109.908C92.7687 108.773 89.5665 105.653 88.5127 103.545C86.3644 99.4517 85.5943 90.6974 86.8508 85.3071C88.31 79.1467 91.8769 74.9316 96.9031 73.2699C99.6999 72.3378 105.415 72.7431 108.131 73.9995Z" fill="#242424"/>
<path d="M149.677 59.1253C147.651 59.8548 145.989 61.6381 145.421 63.7456C145.138 64.8399 145.016 74.2427 145.097 92.8455C145.219 119.757 145.219 120.365 146.07 121.945C148.502 126.566 157.014 126.566 159.365 121.945C160.176 120.405 160.216 119.433 160.419 105.166L160.621 89.9679L166.661 100.506C174.038 113.313 174.605 114.164 176.389 115.015C178.172 115.866 181.172 115.866 182.955 115.015C184.698 114.164 185.266 113.313 192.44 100.87C195.642 95.2773 198.48 90.4543 198.804 90.1301C199.25 89.6437 199.331 91.9944 199.331 104.721C199.331 121.702 199.412 122.229 202.209 124.215C203.384 125.066 204.033 125.188 206.91 125.188C210.477 125.188 211.572 124.742 213.274 122.391C214.125 121.297 214.125 120.932 214.125 92.0349V62.7729L213.153 61.3949C210.558 57.7878 203.992 57.5041 200.628 60.868C199.696 61.8002 195.602 68.7307 189.643 79.5114C182.226 92.886 180.037 96.5337 179.632 96.1284C179.388 95.8447 175.092 88.2252 170.106 79.1872C165.04 69.9871 160.378 62.0434 159.527 61.1112C157.217 58.5984 153.366 57.8284 149.677 59.1253Z" fill="#242424"/>
<path d="M231.96 59.0037C229.893 59.7738 228.636 60.8681 227.745 62.6919C226.893 64.4346 226.893 64.8804 226.893 91.9944C226.893 117.811 226.974 119.595 227.663 121.135C228.961 124.012 231.433 125.39 235.203 125.39C238.891 125.39 241.323 124.053 242.742 121.256C243.471 119.838 243.512 118.46 243.512 92.0755C243.512 65.7721 243.471 64.313 242.742 62.6919C241.566 60.1791 239.337 58.8416 235.892 58.6795C234.392 58.5984 232.649 58.72 231.96 59.0037Z" fill="#A71D31"/>
<path d="M261.225 59.8953C258.874 60.5438 256.767 62.4487 256.118 64.5562C255.794 65.6505 255.672 73.9184 255.672 92.4402V118.784L256.604 120.567C257.253 121.743 258.145 122.675 259.361 123.364C261.144 124.377 261.225 124.377 272.899 124.499C288.545 124.661 294.422 123.972 300.826 121.135C308.528 117.73 314.608 110.597 316.675 102.491C318.337 96.0878 318.337 87.8199 316.675 81.4163C314.729 73.7563 309.338 67.1095 302.285 63.624C295.152 60.1385 289.599 59.3279 273.547 59.3685C266.413 59.3685 262.563 59.5306 261.225 59.8953ZM288.707 74.04C294.908 75.8233 298.597 79.7546 299.894 86.0366C300.624 89.6437 300.178 97.9522 299.083 100.789C297.827 103.991 295.962 106.301 293.368 107.882C289.599 110.111 287.856 110.476 279.708 110.678L272.291 110.881V92.2781C272.291 82.0242 272.412 73.5131 272.615 73.351C273.101 72.8241 286.477 73.3915 288.707 74.04Z" fill="#242424"/>
<path d="M333.78 59.8954C331.429 60.5439 329.321 62.4487 328.673 64.5563C328.348 65.6505 328.227 73.9185 328.227 92.4403V118.784L329.159 120.567C329.808 121.743 330.699 122.675 331.915 123.364L333.699 124.377L351.858 124.499C369.692 124.62 370.017 124.58 371.922 123.729C374.232 122.675 379.785 122.189 380.717 122.959C381.569 123.688 381.488 127.133 380.474 132.483C379.542 137.387 379.623 139.495 380.92 141.967C382.46 145.047 386.352 147.276 390.121 147.276C391.094 147.276 393.81 146.83 396.161 146.263C398.512 145.695 401.389 145.25 402.565 145.25C404.348 145.25 404.835 145.412 405.727 146.344C406.294 146.992 407.064 148.046 407.388 148.695C407.713 149.384 408.361 150.235 408.767 150.64C409.537 151.329 409.577 151.289 410.307 148.897C411.199 145.979 411.036 145.29 408.118 139.089C407.064 136.779 405.97 134.388 405.686 133.739C405.24 132.605 405.119 132.564 403.092 132.807C401.916 132.929 398.674 133.942 395.836 135.077C393.04 136.212 390.445 137.144 390.081 137.144C388.865 137.144 388.5 135.604 388.824 131.51C389.392 124.418 388.946 121.986 386.676 119.595C384.325 117.082 380.191 115.947 376.583 116.798C375.164 117.122 374.84 117.082 374.84 116.636C374.84 115.582 373.34 113.07 372.327 112.421C371.557 111.935 368.963 111.773 357.816 111.611L344.237 111.408L344.116 104.842L344.035 98.317L356.276 98.1549C368.233 98.0333 368.598 97.9928 370.057 97.1011C372.043 95.8852 373.016 93.3724 372.692 90.4949C372.368 87.82 371.557 86.6041 369.449 85.6314C367.909 84.9424 366.652 84.8613 355.911 84.8613H344.035V78.8225V72.7431L357.33 72.6215C369.733 72.5 370.665 72.4594 371.962 71.6894C373.786 70.5951 374.84 68.5281 374.84 66.0153C374.84 63.462 373.827 61.395 372.003 60.3412C370.625 59.5712 369.855 59.5306 353.155 59.4496C339.819 59.3685 335.28 59.4901 333.78 59.8954Z" fill="#242424"/>
<path d="M416.63 107.193C409.618 111.854 405.645 122.837 407.834 131.308C408.199 132.686 409.496 135.887 410.712 138.441C413.266 143.75 413.752 146.141 412.941 149.546C412.212 152.504 412.577 152.829 415.576 152.18C426.642 149.708 435.883 137.792 437.667 123.648C438.356 118.298 436.734 111.165 434.546 110.07C434.14 109.868 431.181 108.936 427.939 108.003C424.696 107.071 421.534 106.099 420.886 105.896C419.265 105.369 419.386 105.328 416.63 107.193ZM420.967 111.854C422.386 112.867 422.183 114.812 420.4 116.515C418.616 118.217 417.522 120.284 417.157 122.594C416.833 124.58 415.779 125.796 414.36 125.796C413.063 125.796 411.725 124.337 411.725 122.918C411.725 120.932 413.225 116.96 414.765 114.893C417.36 111.327 419.021 110.476 420.967 111.854Z" fill="#242424"/>
</g>
<defs>
<clipPath id="clip0_406_47">
<rect width="453" height="152" fill="white"/>
</clipPath>
</defs>
</svg>
